# xmcd
#
# Track frame offsets: 
#        150
#        48985
#        63003
#        74336
#        105102
#        169048
#
# Disc length: 2844 seconds
#
# Revision: 0
# Processed by: cddbd v1.5.2PL0 Copyright (c) Steve Scherf et al.
# Submitted via: ExactAudioCopy v1.0b3
#
DISCID=410b1a06
DTITLE=Tenore de Mamoiada - Musica Sarda
DYEAR=1900
DGENRE=Folk
TTITLE0=Tenore a Sa Sera
TTITLE1=Su Sartiu a Tenore
TTITLE2=Mutos
TTITLE3=Su Sartiu
TTITLE4=Su Comitziu
TTITLE5=Su Passu
EXTD=
EXTT0=
EXTT1=
EXTT2=
EXTT3=
EXTT4=
EXTT5=
PLAYORDER=
